<svg xmlns="http://www.w3.org/2000/svg" height="800" width="1200" viewBox="-28.6488 -53.72575 248.2896 322.3545"><path d="M94.594.006A21.49 21.539 0 0083.34 2.895l-72.59 41.99A21.49 21.539 0 000 63.537v84.027a21.49 21.539 0 0010.75 18.629l72.59 42.024a21.49 21.539 0 0021.49 0l72.602-42.024a21.49 21.539 0 0010.74-18.629V63.536a21.49 21.539 0 00-10.74-18.65L104.83 2.895A21.49 21.539 0 0094.594.005zM94.361 47.5a11.819 11.846 0 015.634 1.582l39.932 23.099a11.819 11.846 0 015.908 10.259v46.22a11.819 11.846 0 01-5.908 10.237l-39.932 23.12a11.819 11.846 0 01-11.813 0l-39.934-23.12a11.819 11.846 0 01-5.907-10.237V82.44a11.819 11.846 0 015.907-10.26l39.934-23.098a11.819 11.846 0 016.18-1.582z" fill="#63a0ff"/><path d="M185.289 52.802l-41.052 23.747a11.819 11.846 0 011.588 5.92v46.208a11.819 11.846 0 01-5.907 10.249l-39.92 23.11a11.819 11.846 0 01-5.886 1.57v47.496a21.49 21.539 0 0010.719-2.868l16.15-9.347 20.608 11.993c9.217 5.364 24.057 5.364 33.274 0l9.216-5.362c9.217-5.364 9.217-14.002 0-19.366l-20.495-11.927 13.848-8.015a21.49 21.539 0 0010.74-18.629V63.566a21.49 21.539 0 00-2.883-10.764z" fill="#3874d8"/><path d="M2.903 52.766l41.044 23.76a11.819 11.846 0 014.32-4.34l39.927-23.104a11.819 11.846 0 0111.808.004l39.93 23.098a11.819 11.846 0 014.3 4.323l41.035-23.747a21.49 21.539 0 00-7.835-7.87L104.82 2.883a21.49 21.539 0 00-21.466-.006L10.763 44.885a21.49 21.539 0 00-7.86 7.883z" fill="#99bfff"/></svg>