<svg height="96" width="96" xmlns="http://www.w3.org/2000/svg" xmlns:xlink="http://www.w3.org/1999/xlink"><linearGradient id="a"><stop offset="0" stop-color="#fefefe"/><stop offset="1" stop-color="#fefefe" stop-opacity="0"/></linearGradient><linearGradient id="b" gradientUnits="userSpaceOnUse" x1="36.357143" x2="36.357143" xlink:href="#a" y1="6" y2="63.893143"/><filter id="c" color-interpolation-filters="sRGB" height="1.384" width="1.384" x="-.192" y="-.192"><feGaussianBlur stdDeviation="5.28"/></filter><radialGradient id="d" cx="48" cy="90.171875" gradientTransform="matrix(1.1573129 0 0 .99590774 -7.551021 .197132)" gradientUnits="userSpaceOnUse" r="42" xlink:href="#a"/><clipPath id="e"><rect height="84" rx="6" width="84" x="6" y="6"/></clipPath><linearGradient id="f" gradientUnits="userSpaceOnUse" x1="48" x2="48" y1="90" y2="5.987717"><stop offset="0" stop-color="#146d96" stop-opacity=".972549"/><stop offset="1" stop-color="#3cade2" stop-opacity=".996078"/></linearGradient><linearGradient id="g" gradientTransform="matrix(1.0058652 0 0 .994169 100 0)" gradientUnits="userSpaceOnUse" x1="45.447727" x2="45.447727" y1="92.539597" y2="7.01654"><stop offset="0"/><stop offset="1" stop-opacity=".588235"/></linearGradient><linearGradient id="h" gradientTransform="matrix(1.0238095 0 0 1.0119048 -1.142857 -98.071429)" gradientUnits="userSpaceOnUse" x1="32.251034" x2="32.251034" xlink:href="#g" y1="6.131708" y2="90.238609"/><linearGradient id="i" gradientTransform="translate(0 -97)" gradientUnits="userSpaceOnUse" x1="32.251034" x2="32.251034" xlink:href="#g" y1="6.131708" y2="90.238609"/><linearGradient id="j" gradientUnits="userSpaceOnUse" x1="46.796001" x2="46.796001" y1="71.448395" y2="22.992983"><stop offset="0" stop-color="#115575"/><stop offset="1" stop-color="#197ba9"/></linearGradient><g fill="url(#h)"><path d="m12-95.03125c-5.5110903 0-10.03125 4.52016-10.03125 10.03125v71c0 5.5110902 4.5201598 10.03125 10.03125 10.03125h72c5.51109 0 10.03125-4.5201597 10.03125-10.03125v-71c0-5.51109-4.52016-10.03125-10.03125-10.03125z" opacity=".08" transform="scale(1 -1)"/><path d="m12-94.03125c-4.971633 0-9.03125 4.059617-9.03125 9.03125v71c0 4.9716329 4.0596171 9.03125 9.03125 9.03125h72c4.971633 0 9.03125-4.059617 9.03125-9.03125v-71c0-4.971633-4.059617-9.03125-9.03125-9.03125z" opacity=".1" transform="scale(1 -1)"/><path d="m12-93c-4.4091333 0-8 3.590867-8 8v71c0 4.4091333 3.5908667 8 8 8h72c4.409133 0 8-3.5908667 8-8v-71c0-4.409133-3.590867-8-8-8z" opacity=".2" transform="scale(1 -1)"/><rect height="85" opacity=".3" rx="7" transform="scale(1 -1)" width="86" x="5" y="-92"/></g><rect fill="url(#i)" height="84" opacity=".45" rx="6" transform="scale(1 -1)" width="84" x="6" y="-91"/><rect fill="url(#f)" height="84" rx="6" width="84" x="6" y="6"/><path d="m12 6c-3.324 0-6 2.676-6 6v2 68 2c0 .334721.04135.6507.09375.96875.0487.295596.09704.596915.1875.875.00988.03038.020892.0636.03125.09375.098865.287771.2348802.547452.375.8125.1445918.273507.3156161.535615.5.78125s.3737765.473472.59375.6875c.439947.428056.94291.814526 1.5 1.09375.278545.139612.5734731.246947.875.34375-.2562018-.100222-.4867109-.236272-.71875-.375-.00741-.0044-.023866.0045-.03125 0-.031933-.0193-.062293-.04251-.09375-.0625-.120395-.0767-.2310226-.163513-.34375-.25-.1061728-.0808-.2132809-.161112-.3125-.25-.1779299-.161433-.3474596-.345388-.5-.53125-.1075789-.130255-.2183939-.265285-.3125-.40625-.025089-.03838-.038446-.08587-.0625-.125-.064763-.103032-.1302275-.204517-.1875-.3125-.1010083-.194706-.2056748-.415701-.28125-.625-.00796-.02181-.023589-.04055-.03125-.0625-.0318251-.09195-.0358045-.186831-.0625-.28125-.0303323-.106618-.0703894-.203031-.09375-.3125-.0728786-.341512-.125-.698205-.125-1.0625v-2-68-2c0-2.781848 2.2181517-5 5-5h2 68 2c2.781848 0 5 2.218152 5 5v2 68 2c0 .364295-.05212.720988-.125 1.0625-.04415.206893-.08838.397658-.15625.59375-.0077.02195-.0233.04069-.03125.0625-.06274.173739-.138383.367449-.21875.53125-.04158.0828-.07904.169954-.125.25-.0546.09721-.126774.18835-.1875.28125-.09411.140965-.204921.275995-.3125.40625-.143174.17445-.303141.346998-.46875.5-.01117.0102-.01998.02115-.03125.03125-.138386.125556-.285091.234436-.4375.34375-.102571.07315-.204318.153364-.3125.21875-.0074.0045-.02384-.0044-.03125 0-.232039.138728-.462548.274778-.71875.375.301527-.0968.596455-.204138.875-.34375.55709-.279224 1.060053-.665694 1.5-1.09375.219973-.214028.409366-.441865.59375-.6875s.355408-.507743.5-.78125c.14012-.265048.276135-.524729.375-.8125.01041-.03078.02133-.06274.03125-.09375.09046-.278085.1388-.579404.1875-.875.0524-.31805.09375-.634029.09375-.96875v-2-68-2c0-3.324-2.676-6-6-6z" fill="url(#b)" opacity=".4"/><path d="m12 90c-3.324 0-6-2.676-6-6v-2-68-2c0-.334721.04135-.6507.09375-.96875.0487-.295596.09704-.596915.1875-.875.00988-.03038.020892-.0636.03125-.09375.098865-.287771.2348802-.547452.375-.8125.1445918-.273507.3156161-.535615.5-.78125s.3737765-.473472.59375-.6875c.439947-.428056.94291-.814526 1.5-1.09375.278545-.139612.5734731-.246947.875-.34375-.2562018.100222-.4867109.236272-.71875.375-.00741.0044-.023866-.0045-.03125 0-.031933.0193-.062293.04251-.09375.0625-.120395.0767-.2310226.163513-.34375.25-.1061728.0808-.2132809.161112-.3125.25-.1779299.161433-.3474596.345388-.5.53125-.1075789.130255-.2183939.265285-.3125.40625-.025089.03838-.038446.08587-.0625.125-.064763.103032-.1302275.204517-.1875.3125-.1010083.194706-.2056748.415701-.28125.625-.00796.02181-.023589.04055-.03125.0625-.0318251.09195-.0358045.186831-.0625.28125-.0303323.106618-.0703894.203031-.09375.3125-.0728786.341512-.125.698205-.125 1.0625v2 68 2c0 2.781848 2.2181517 5 5 5h2 68 2c2.781848 0 5-2.218152 5-5v-2-68-2c0-.364295-.05212-.720988-.125-1.0625-.04415-.206893-.08838-.397658-.15625-.59375-.0077-.02195-.0233-.04069-.03125-.0625-.06274-.173739-.138383-.367449-.21875-.53125-.04158-.0828-.07904-.169954-.125-.25-.0546-.09721-.126774-.18835-.1875-.28125-.09411-.140965-.204921-.275995-.3125-.40625-.143174-.17445-.303141-.346998-.46875-.5-.01117-.0102-.01998-.02115-.03125-.03125-.138386-.125556-.285091-.234436-.4375-.34375-.102571-.07315-.204318-.153364-.3125-.21875-.0074-.0045-.02384.0044-.03125 0-.232039-.138728-.462548-.274778-.71875-.375.301527.0968.596455.204138.875.34375.55709.279224 1.060053.665694 1.5 1.09375.219973.214028.409366.441865.59375.6875s.355408.507743.5.78125c.14012.265048.276135.524729.375.8125.01041.03078.02133.06274.03125.09375.09046.278085.1388.579404.1875.875.0524.31805.09375.634029.09375.96875v2 68 2c0 3.324-2.676 6-6 6z" fill="url(#d)" opacity=".2"/><path d="m65.78125 24c-19.318664 1.440718-29.489301 12.984045-34.21875 23.8125-3.632312 8.316472-4.19392 14.896596-4.34375 18.1875h-21.21875v6h24a3.0003 3.0003 0 0 0 3-3.03125s-.08281-9.258984 4.0625-18.75c3.716337-8.508854 10.463486-16.943572 24.1875-19.53125-8.051088 20.962521 2.125 39.78125 2.125 39.78125a3.0003 3.0003 0 0 0 2.625 1.53125h24v-6h-22.0625c-1.799183-3.70326-8.677531-19.855444.71875-37.59375a3.0003 3.0003 0 0 0 -2.875-4.40625z" fill="url(#j)"/><path d="m65.78125 24c-19.318664 1.440718-29.489301 12.984045-34.21875 23.8125-3.632312 8.316472-4.19392 14.896596-4.34375 18.1875h-21.21875v2h7v.0625h14.21875a2.0619912 2.0619912 0 0 0 2.0625-1.96875c.144863-3.181803.652399-9.4464 4.15625-17.46875 4.510611-10.327408 13.94232-21.178534 32.5-22.5625.224844-.01722-.100134-.01289.125 0s-.09641-.04277.125 0c.221409.04277-.08874-.04064.125.03125.213736.07189-.07725-.03723.125.0625.202251.09973-.09341-.06329.09375.0625.187159.125789-.07498-.08711.09375.0625.16873.149605-.05354-.077.09375.09375.147291.170754-.06073-.09511.0625.09375.123226.188857-.03446-.07859.0625.125.09696.203592-.0065-.0897.0625.125.06897.214696-.0085-.128222.03125.09375s-.0098-.100289 0 .125.02029-.09959 0 .125c-.02029.224588.05003-.09488 0 .125-.05003.219882.01638-.08626-.0625.125-.07888.211255.07508-.07386-.03125.125-9.833455 18.563603-2.676337 35.503768-.75 39.46875a2.0619912 2.0619912 0 0 0 1.84375 1.15625h15.0625v-.0625h7v-2h-22.0625c-1.799183-3.70326-8.677531-19.855444.71875-37.59375a3.0003 3.0003 0 0 0 -2.875-4.40625zm-4.625 4.625a2.0619912 2.0619912 0 0 0 -.28125.03125c-14.404752 2.716032-21.804836 11.860327-25.6875 20.75-4.3462 9.950969-4.25 19.59375-4.25 19.59375.0017.16673.01474-.07234 0 .09375-.01474.166087.03105-.07007 0 .09375-.03105.163823.01581-.09746-.03125.0625s.03136-.06079-.03125.09375c-.06261.154537.0463-.05386-.03125.09375-.07755.147606.02924-.04548-.0625.09375-.09174.139235.04253-.067-.0625.0625-.105026.129505.05479-.05601-.0625.0625-.11729.118512.06591-.04386-.0625.0625-.12841.106362.07578-.03068-.0625.0625-.138277.09318.05304-.04783-.09375.03125-.0367.01977-.06178.0267-.0625.03125.005.0055.01923.02322 0 .03125-.15388.06421.06571-.01747-.09375.03125-.159464.04872.06974-.03275-.09375 0-.163492.03275.07218.01479-.09375.03125-.165925.01646.07299-.000008-.09375 0h-17v.0625h-7v2h24a3.0003 3.0003 0 0 0 3-3.03125s-.08281-9.258984 4.0625-18.75c3.716337-8.508854 10.463486-16.943572 24.1875-19.53125-8.051088 20.962521 2.125 39.78125 2.125 39.78125a3.0003 3.0003 0 0 0 2.625 1.53125h24v-2h-7v-.0625h-17c-.22402.000668.09714.02899-.125 0-.222137-.02899.09134.02689-.125-.03125-.216344-.05814.08174.05502-.125-.03125-.206744-.08627.09976.05038-.09375-.0625-.193505-.112878.05186.075-.125-.0625-.17686-.137499.06335.06595-.09375-.09375-.157102-.159701.07208.08534-.0625-.09375-.103522-.137763-.05519-.04003-.0625-.0625 0 0 .000083-.0311 0-.03125-.0399-.07424-9.67864-18.038468-2-38.03125a2.0619912 2.0619912 0 0 0 -2.03125-2.8125z" fill="#124964" opacity=".15"/><path d="m68.96875 27.5625a3.0003 3.0003 0 0 1 -.3125.84375c-3.663676 6.916291-4.862676 13.584887-4.84375 19.375.116767-5.551695 1.390229-11.85544 4.84375-18.375a3.0003 3.0003 0 0 0 .3125-1.84375zm-7.71875 3.125c-13.724014 2.587678-20.471163 11.022396-24.1875 19.53125-4.14531 9.491016-4.0625 18.75-4.0625 18.75a3.0003 3.0003 0 0 1 -3 3.03125h-24v1h24a3.0003 3.0003 0 0 0 3-3.03125s-.08281-9.258984 4.0625-18.75c3.68131-8.428656 10.347767-16.765539 23.8125-19.4375.128703-.36184.2355-.730537.375-1.09375zm-3.09375 17.3125c-.167426 13.504414 5.21875 23.46875 5.21875 23.46875a3.0003 3.0003 0 0 0 2.625 1.53125h24v-1h-24a3.0003 3.0003 0 0 1 -2.625-1.53125s-5.117956-9.478136-5.21875-22.46875z" fill="#fefefe" opacity=".3"/><path d="m65.78125 24c-19.318664 1.440718-29.489301 12.984045-34.21875 23.8125-3.632312 8.316472-4.19392 14.896596-4.34375 18.1875h-21.21875v1h21.21875c.14983-3.290904.711438-9.871028 4.34375-18.1875 4.729449-10.828455 14.900086-22.371782 34.21875-23.8125a3.0003 3.0003 0 0 1 3.1875 2.53125 3.0003 3.0003 0 0 0 -3.1875-3.53125zm-4.53125 7.6875c-.129351.02439-.246885.06833-.375.09375-2.02917 5.704864-2.757559 11.216922-2.71875 16.21875.062657-5.053872.901243-10.603897 3.09375-16.3125zm2.5625 16.09375c-.20093 9.553262 2.987091 16.876591 4.125 19.21875h22.0625v-1h-22.0625c-1.097669-2.259333-4.095386-9.158882-4.125-18.21875z" opacity=".3"/><path d="m65.78125 24c-11.513921.672848-22.87195 6.183344-29.59375 15.71875-5.453235 7.631316-8.502949 16.933154-8.96875 26.28125h-21.21875v1h1 6c4.837712.01024 9.671704.01819 14.5-.0625 1.368551-.715104.464401-2.689085.90625-3.90625 1.54033-13.013133 8.07257-26.212381 19.78125-32.875 5.367462-3.118921 11.491191-4.738039 17.65625-5.1875 1.754569-.192293 2.86764 2.081882 1.71875 3.40625-6.229112 11.750452-6.228705 26.445229-.34375 38.3125 1.08397.721588 2.576898.117789 3.8125.3125h11.96875 6 1v-1h-22.0625c-5.668375-11.829517-5.518795-26.344528.84375-37.875.892755-1.976952-.842082-4.361638-3-4.125zm-4.78125 5.71875c-.654626.0077-1.427765.254573-1.875.40625-9.589748 2.055629-17.857084 8.818579-22.03125 17.65625-3.431352 6.797904-4.865464 14.429236-5.21875 21.96875-.874613 1.955698-3.303882 1.042038-4.96875 1.25h-13.90625-6-1v1c8.197431-.03998 16.402564.07724 24.59375-.0625 2.558335-.448217 2.536526-3.395717 2.5-5.40625.945424-11.4655 5.337788-23.570372 15.03125-30.46875 3.891654-2.763032 8.449935-4.503144 13.125-5.375-4.956855 12.865266-3.807785 27.759435 2.28125 40.03125 1.493061 2.007421 4.223287 1.058902 6.34375 1.28125h20.125v-1h-1c-1.996684-.0107-4.001531-.0038-6 0-5.849684.01113-11.69636.04654-17.53125-.0625-1.834751-.615907-1.969315-3.042516-2.8125-4.53125-4.387695-11.320781-4.8342-24.269613-.4375-35.65625-.028009-.807573-.564124-1.038974-1.21875-1.03125z" fill="#124964" opacity=".4"/><rect height="66" rx="12" style="opacity:.1;fill:#69ffff;stroke:#fefefe;stroke-width:.5;stroke-linecap:round;clip-path:url(#e);filter:url(#c)" width="66" x="15" y="15"/></svg>